<?xml version="1.0" encoding="utf-8"?>
<!-- Generator: Adobe Illustrator 28.1.0, SVG Export Plug-In . SVG Version: 6.00 Build 0)  -->
<svg version="1.1" id="Layer_1" xmlns="http://www.w3.org/2000/svg" xmlns:xlink="http://www.w3.org/1999/xlink" x="0px" y="0px"
	 viewBox="0 0 2465 318" style="enable-background:new 0 0 2465 318;" xml:space="preserve">
<style type="text/css">
	.st0{fill:#FFFFFF;}
	.st1{fill:#FF8800;fill-opacity:0.502;stroke:#FF8800;stroke-opacity:0.502;}
	.st2{enable-background:new    ;}
	.st3{fill:#FF8800;}
	.st4{font-family:'ArialMT';}
	.st5{font-size:1px;}
	.st6{fill:#00FF00;fill-opacity:0.1882;stroke:#00FF00;stroke-opacity:0.1882;}
	.st7{fill:#006400;}
	.st8{font-size:12px;}
	.st9{fill:none;stroke:#000000;stroke-width:0.75;stroke-opacity:0.251;}
	.st10{fill:none;stroke:#000000;stroke-miterlimit:10;}
	.st11{font-size:10px;}
	.st12{fill:#FF0000;fill-opacity:0.1255;stroke:#FF0000;stroke-opacity:0.1255;}
	.st13{fill:#7F0000;}
	.st14{fill:none;stroke:#000000;stroke-width:2;stroke-opacity:0.251;}
	.st15{fill:#00007F;fill-opacity:0.251;stroke:#00007F;stroke-opacity:0.251;}
	.st16{fill:#00007F;}
	.st17{fill:none;stroke:#000000;stroke-width:0.75;stroke-opacity:0.251;stroke-dasharray:5,2;}
</style>
<polygon class="st0" points="0.2,318 0.2,0 2464.8,0 2464.8,318 "/>
<g id="node1">
	<ellipse class="st1" cx="675.8" cy="230" rx="2" ry="2"/>
	<g class="st2">
		<text transform="matrix(1 0 0 1 674.9158 230.3)" class="st3 st4 st5">520</text>
	</g>
</g>
<g id="node3">
	<polygon class="st6" points="823.8,279 503.8,279 503.8,314 823.8,314 	"/>
	<text transform="matrix(1 0 0 1 512.332 299.6)" class="st7 st4 st8">`lab_data_rojasbowe_chipmunk_computed`.`unit_match`</text>
</g>
<g id="edge1">
	<path class="st9" d="M675.5,232.1c-1,5.5-5.6,30-8.7,46.8"/>
</g>
<g id="node2">
	<polygon class="st6" points="371.8,279 57.8,279 57.8,314 371.8,314 	"/>
	<text transform="matrix(1 0 0 1 66.9941 299.6)" class="st7 st4 st8">`lab_data_rojasbowe_chipmunk_computed`.`unit_label`</text>
</g>
<g id="node4">
	<g id="a_node4">
		<a>
			<polygon class="st10" points="593.2,154 500.2,154 500.2,173 593.2,173 			"/>
			<text transform="matrix(1 0 0 1 508.25 165)" class="st10 st4 st11" style="text-decoration: underline;">SpikeSorting.Unit</text>
		</a>
	</g>
</g>
<g id="edge2">
	<path class="st9" d="M563.9,173.1c32.3,16.2,100.1,50.1,110.5,55.3"/>
</g>
<g id="edge3">
	<path class="st9" d="M561.7,173.1c15.4,9.3,39.4,25.5,56,43.9c17,18.9,30.8,45.1,38.7,61.9"/>
</g>
<g id="node23">
	<g id="a_node23">
		<a>
			<ellipse class="st12" cx="427.8" cy="230" rx="13" ry="13"/>
			<g class="st2">
				<text transform="matrix(1 0 0 1 397.7471 233.1)" class="st13 st4 st8">UnitMetrics</text>
			</g>
		</a>
	</g>
</g>
<g id="edge4">
	<path class="st14" d="M530.7,173.2c-24.5,13.3-70.6,38.2-91.8,49.7"/>
</g>
<g id="node27">
	<g id="a_node27">
		<a>
			<polygon class="st10" points="609.2,220.5 484.2,220.5 484.2,239.5 609.2,239.5 			"/>
			<text transform="matrix(1 0 0 1 491.916 232.5)" class="st10 st4 st11">SpikeSorting.Waveforms</text>
		</a>
	</g>
</g>
<g id="edge5">
	<path class="st14" d="M546.8,173.2c0,12.4,0,34.9,0,47.2"/>
</g>
<g id="node5">
	<g id="a_node5">
		<a>
			<polygon class="st10" points="1287.2,220.5 1172.2,220.5 1172.2,239.5 1287.2,239.5 			"/>
			<text transform="matrix(1 0 0 1 1180.25 231.5)" class="st10 st4 st11" style="text-decoration: underline;">CellSegmentation.ROI</text>
		</a>
	</g>
</g>
<g id="node17">
	<g id="a_node17">
		<a>
			<polygon class="st10" points="979.2,287 842.2,287 842.2,306 979.2,306 			"/>
			<text transform="matrix(1 0 0 1 850.25 298)" class="st10 st4 st11" style="text-decoration: underline;">CellSegmentation.Selection</text>
		</a>
	</g>
</g>
<g id="edge6">
	<path class="st9" d="M1185.6,239.6c-48.6,9.4-128.8,25.2-197.8,39.4c-12.3,2.5-25.7,5.4-37.8,8"/>
</g>
<g id="node21">
	<g id="a_node21">
		<a>
			<ellipse class="st12" cx="1072.8" cy="296.5" rx="13" ry="13"/>
			<g class="st2">
				<text transform="matrix(1 0 0 1 1006.0557 299.6)" class="st13 st4 st8">CellSegmentationMetrics</text>
			</g>
		</a>
	</g>
</g>
<g id="edge7">
	<path class="st14" d="M1208.9,239.6c-33.4,13.7-97.7,40.1-124.2,51"/>
</g>
<g id="node31">
	<g id="a_node31">
		<a>
			<polygon class="st10" points="1293.2,287 1166.2,287 1166.2,306 1293.2,306 			"/>
			<text transform="matrix(1 0 0 1 1173.7979 299)" class="st10 st4 st11">CellSegmentation.Traces</text>
		</a>
	</g>
</g>
<g id="edge8">
	<path class="st14" d="M1229.8,239.7c0,12.4,0,34.9,0,47.2"/>
</g>
<g id="node39">
	<g id="a_node39">
		<a>
			<polygon class="st10" points="1458.2,287 1311.2,287 1311.2,306 1458.2,306 			"/>
			<text transform="matrix(1 0 0 1 1318.7954 299)" class="st10 st4 st11">CellSegmentation.RawTraces</text>
		</a>
	</g>
</g>
<g id="edge9">
	<path class="st14" d="M1250.3,239.6c29.7,12.3,84.1,35,113.8,47.3"/>
</g>
<g id="node40">
	<g id="a_node40">
		<a>
			<polygon class="st10" points="1630.8,287 1476.8,287 1476.8,306 1630.8,306 			"/>
			<text transform="matrix(1 0 0 1 1483.9868 299)" class="st10 st4 st11">CellSegmentation.Deconvolved</text>
		</a>
	</g>
</g>
<g id="edge10">
	<path class="st14" d="M1272.8,239.6c62.1,12.3,176,35,238,47.4"/>
</g>
<g id="node6">
	<g id="a_node6">
		<a>
			<polygon class="st10" points="725.8,154 611.8,154 611.8,173 725.8,173 			"/>
			<text transform="matrix(1 0 0 1 619.75 165)" class="st10 st4 st11" style="text-decoration: underline;">SpikeSorting.Segment</text>
		</a>
	</g>
</g>
<g id="node7">
	<g id="a_node7">
		<a>
			<polygon class="st10" points="147.2,154 4.2,154 4.2,173 147.2,173 			"/>
			<text transform="matrix(1 0 0 1 11.5459 166)" class="st10 st4 st11">SpikeSorting.LinkedDatasets</text>
		</a>
	</g>
</g>
<g id="node8">
	<g id="a_node8">
		<a>
			<polygon class="st10" points="471.8,287 389.8,287 389.8,306 471.8,306 			"/>
			<text transform="matrix(1 0 0 1 398.2354 299)" class="st10 st4 st11">UnitCount.Unit</text>
		</a>
	</g>
</g>
<g id="node9">
	<g id="a_node9">
		<a>
			<polygon class="st10" points="443.8,154 293.8,154 293.8,173 443.8,173 			"/>
			<text transform="matrix(1 0 0 1 300.6616 166)" class="st10 st4 st11">SpikeSorting.IntermediateFiles</text>
		</a>
	</g>
</g>
<g id="node10">
	<g id="a_node10">
		<a>
			<polygon class="st10" points="1525.8,83 1383.8,83 1383.8,102 1525.8,102 			"/>
			<text transform="matrix(1 0 0 1 1391.6665 95)" class="st10 st4 st11">ComputeTask.AssignedFiles</text>
		</a>
	</g>
</g>
<g id="node11">
	<g id="a_node11">
		<a>
			<polygon class="st6" points="1371.8,4 1217.8,4 1217.8,39 1371.8,39 			"/>
			<text transform="matrix(1 0 0 1 1225.75 23.6)" class="st7 st4 st8" style="text-decoration: underline;">CellSegmentationParams</text>
		</a>
	</g>
</g>
<g id="node33">
	<g id="a_node33">
		<a>
			<ellipse class="st15" cx="1294.8" cy="92.5" rx="70.8" ry="17.5"/>
			<g class="st2">
				<text transform="matrix(1 0 0 1 1247.3887 95.6)" class="st16 st4 st8">CellSegmentation</text>
			</g>
		</a>
	</g>
</g>
<g id="edge11">
	<path class="st9" d="M1294.8,39.2c0,10.8,0,24.9,0,35.7"/>
</g>
<g id="node12">
	<g id="a_node12">
		<a>
			<polygon class="st6" points="1677.8,75 1543.8,75 1543.8,110 1677.8,110 			"/>
			<text transform="matrix(1 0 0 1 1551.75 94.6)" class="st7 st4 st8" style="text-decoration: underline;">PoseEstimationModel</text>
		</a>
	</g>
</g>
<g id="node30">
	<g id="a_node30">
		<a>
			<polygon class="st6" points="1661.2,146 1560.2,146 1560.2,181 1661.2,181 			"/>
			<text transform="matrix(1 0 0 1 1568.25 165.6)" class="st7 st4 st8" style="text-decoration: underline;">PoseEstimation</text>
		</a>
	</g>
</g>
<g id="edge12">
	<path class="st9" d="M1610.8,110.2c0,10.9,0,24.9,0,35.8"/>
</g>
<g id="node13">
	<g id="a_node13">
		<a>
			<polygon class="st6" points="514.8,75 428.8,75 428.8,110 514.8,110 			"/>
			<text transform="matrix(1 0 0 1 437.7305 95.6)" class="st7 st4 st8">SpikeSorting</text>
		</a>
	</g>
</g>
<g id="edge13">
	<path class="st9" d="M489.9,110.2c14.9,13.7,35.4,32.6,47.3,43.5"/>
</g>
<g id="edge14">
	<path class="st9" d="M515,108.6c39.6,13.9,96.9,34,129.2,45.3"/>
</g>
<g id="edge15">
	<path class="st9" d="M428.6,100.2c-60.8,9.5-175,27.9-271.9,45.8c-13.3,2.5-27.7,5.3-40.7,8"/>
</g>
<g id="edge16">
	<path class="st9" d="M447.1,110c-20.6,13.8-49.1,32.9-65.5,43.9"/>
</g>
<g id="node26">
	<g id="a_node26">
		<a>
			<ellipse class="st12" cx="335.8" cy="230" rx="13" ry="13"/>
			<g class="st2">
				<text transform="matrix(1 0 0 1 309.0693 233.1)" class="st13 st4 st8">UnitCount</text>
			</g>
		</a>
	</g>
</g>
<g id="edge17">
	<path class="st9" d="M472.5,110.3c0,19.2-3,50.7-19.8,70.7c-14.1,16.8-77.6,36.7-104.7,44.5"/>
</g>
<g id="node14">
	<g id="a_node14">
		<a>
			<polygon class="st6" points="1967.8,4 1885.8,4 1885.8,39 1967.8,39 			"/>
			<text transform="matrix(1 0 0 1 1894.0723 24.6)" class="st7 st4 st8">StreamSync</text>
		</a>
	</g>
</g>
<g id="node15">
	<g id="a_node15">
		<a>
			<polygon class="st10" points="1845.8,83 1695.8,83 1695.8,102 1845.8,102 			"/>
			<text transform="matrix(1 0 0 1 1703.75 94)" class="st10 st4 st11" style="text-decoration: underline;">PoseEstimationLabelSet.Label</text>
		</a>
	</g>
</g>
<g id="node16">
	<g id="a_node16">
		<a>
			<polygon class="st10" points="1296.2,154 1131.2,154 1131.2,173 1296.2,173 			"/>
			<text transform="matrix(1 0 0 1 1139.25 165)" class="st10 st4 st11" style="text-decoration: underline;">CellSegmentation.LinkedDatasets</text>
		</a>
	</g>
</g>
<g id="node18">
	<g id="a_node18">
		<a>
			<polygon class="st10" points="1445.8,220.5 1305.8,220.5 1305.8,239.5 1445.8,239.5 			"/>
			<text transform="matrix(1 0 0 1 1313.75 231.5)" class="st10 st4 st11" style="text-decoration: underline;">CellSegmentation.Projection</text>
		</a>
	</g>
</g>
<g id="node19">
	<g id="a_node19">
		<a>
			<polygon class="st6" points="2196.8,4 2006.8,4 2006.8,39 2196.8,39 			"/>
			<text transform="matrix(1 0 0 1 2014.75 23.6)" class="st7 st4 st8" style="text-decoration: underline;">FixedBrainTransformParameters</text>
		</a>
	</g>
</g>
<g id="node36">
	<g id="a_node36">
		<a>
			<ellipse class="st12" cx="2101.8" cy="92.5" rx="13" ry="13"/>
			<g class="st2">
				<text transform="matrix(1 0 0 1 2045.957 95.6)" class="st13 st4 st8">FixedBrainTransform</text>
			</g>
		</a>
	</g>
</g>
<g id="edge18">
	<path class="st14" d="M2101.8,39.2c0,12.4,0,29.1,0,40.3"/>
</g>
<g id="node20">
	<g id="a_node20">
		<a>
			<polygon class="st6" points="1499.8,4 1409.8,4 1409.8,39 1499.8,39 			"/>
			<text transform="matrix(1 0 0 1 1417.75 23.6)" class="st7 st4 st8" style="text-decoration: underline;">ComputeTask</text>
		</a>
	</g>
</g>
<g id="edge19">
	<path class="st9" d="M1454.8,39.2c0,13.7,0,32.6,0,43.5"/>
</g>
<g id="node22">
	<g id="a_node22">
		<a>
			<polygon class="st6" points="275.8,146 165.8,146 165.8,181 275.8,181 			"/>
			<text transform="matrix(1 0 0 1 173.75 165.6)" class="st7 st4 st8" style="text-decoration: underline;">UnitCountCriteria</text>
		</a>
	</g>
</g>
<g id="edge20">
	<path class="st9" d="M220,181.1c-1.2,25.1-3.3,72.3-4.5,97.5"/>
</g>
<g id="edge21">
	<path class="st9" d="M250.4,181.1c24.4,13.7,57.5,32.3,74.5,41.8"/>
</g>
<g id="edge22">
	<path class="st9" d="M415.4,234.8c-27.8,8.4-96.6,29.2-145.9,44.2"/>
</g>
<g id="edge23">
	<path class="st9" d="M428.3,243.1c0.6,12.7,1.5,32.3,2,43.6"/>
</g>
<g id="node24">
	<g id="a_node24">
		<a>
			<polygon class="st10" points="1635.2,220.5 1464.2,220.5 1464.2,239.5 1635.2,239.5 			"/>
			<text transform="matrix(1 0 0 1 1470.8218 232.5)" class="st10 st4 st11">CellSegmentation.MotionCorrection</text>
		</a>
	</g>
</g>
<g id="node25">
	<g id="a_node25">
		<a>
			<ellipse class="st15" cx="2270.8" cy="21.5" rx="55.8" ry="17.5"/>
			<g class="st2">
				<text transform="matrix(1 0 0 1 2235.4033 24.6)" class="st16 st4 st8">DecisionTask</text>
			</g>
		</a>
	</g>
</g>
<g id="node29">
	<g id="a_node29">
		<a>
			<polygon class="st10" points="2327.2,83 2214.2,83 2214.2,102 2327.2,102 			"/>
			<text transform="matrix(1 0 0 1 2222.25 94)" class="st10 st4 st11" style="text-decoration: underline;">DecisionTask.TrialSet</text>
		</a>
	</g>
</g>
<g id="edge24">
	<path class="st9" d="M2270.8,39.2c0,13.7,0,32.6,0,43.5"/>
</g>
<g id="edge25">
	<path class="st9" d="M346.3,238.1c17.6,11.9,52.9,35.9,71.8,48.7"/>
</g>
<g id="node28">
	<g id="a_node28">
		<a>
			<polygon class="st10" points="1436.8,154 1314.8,154 1314.8,173 1436.8,173 			"/>
			<text transform="matrix(1 0 0 1 1322.75 165)" class="st10 st4 st11" style="text-decoration: underline;">CellSegmentation.Plane</text>
		</a>
	</g>
</g>
<g id="edge26">
	<path class="st9" d="M1356.4,173.1c-27.9,12.3-79.2,35-107.1,47.3"/>
</g>
<g id="edge27">
	<path class="st9" d="M1375.8,173.2c0,12.4,0,34.9,0,47.2"/>
</g>
<g id="edge28">
	<path class="st14" d="M1398.9,173.1c33.3,12.3,94.4,35,127.7,47.3"/>
</g>
<g id="node32">
	<g id="a_node32">
		<a>
			<polygon class="st10" points="2019.2,83 1864.2,83 1864.2,102 2019.2,102 			"/>
			<text transform="matrix(1 0 0 1 1872.25 94)" class="st10 st4 st11" style="text-decoration: underline;">PoseEstimationLabelSet.Frame</text>
		</a>
	</g>
</g>
<g id="edge29">
	<path class="st9" d="M1276,109.5c-16.3,13.9-39.2,33.4-52.2,44.4"/>
</g>
<g id="edge30">
	<path class="st9" d="M1313.5,109.5c16.3,13.9,39.2,33.4,52.2,44.4"/>
</g>
<g id="node34">
	<g id="a_node34">
		<a>
			<polygon class="st6" points="1845.2,4 1696.2,4 1696.2,39 1845.2,39 			"/>
			<text transform="matrix(1 0 0 1 1704.25 23.6)" class="st7 st4 st8" style="text-decoration: underline;">PoseEstimationLabelSet</text>
		</a>
	</g>
</g>
<g id="edge31">
	<path class="st17" d="M1732.4,39c-25.2,10.9-58.2,25.1-83.4,36"/>
</g>
<g id="edge32">
	<path class="st9" d="M1770.8,39.2c0,13.7,0,32.6,0,43.5"/>
</g>
<g id="edge33">
	<path class="st9" d="M1811.7,39c34.2,13.8,81.6,32.9,108.7,43.9"/>
</g>
<g id="node35">
	<g id="a_node35">
		<a>
			<polygon class="st6" points="2460.8,4 2344.8,4 2344.8,39 2460.8,39 			"/>
			<text transform="matrix(1 0 0 1 2353.7188 24.6)" class="st7 st4 st8">ProbeBrainRegion</text>
		</a>
	</g>
</g>
<g id="node38">
	<g id="a_node38">
		<a>
			<polygon class="st6" points="2194.8,146 2008.8,146 2008.8,181 2194.8,181 			"/>
			<text transform="matrix(1 0 0 1 2016.75 165.6)" class="st7 st4 st8" style="text-decoration: underline;">FixedBrainTransformAnnotation</text>
		</a>
	</g>
</g>
<g id="edge34">
	<path class="st9" d="M2101.8,105.5c0,11.2,0,28,0,40.4"/>
</g>
<g id="node37">
	<g id="a_node37">
		<a>
			<polygon class="st6" points="535.2,4 408.2,4 408.2,39 535.2,39 			"/>
			<text transform="matrix(1 0 0 1 416.25 23.6)" class="st7 st4 st8" style="text-decoration: underline;">SpikeSortingParams</text>
		</a>
	</g>
</g>
<g id="edge35">
	<path class="st9" d="M471.8,39.2c0,10.8,0,24.9,0,35.7"/>
</g>
</svg>
