<?xml version="1.0" encoding="utf-8"?>
<!-- Generator: Adobe Illustrator 28.1.0, SVG Export Plug-In . SVG Version: 6.00 Build 0)  -->
<svg version="1.1" id="Layer_1" xmlns="http://www.w3.org/2000/svg" xmlns:xlink="http://www.w3.org/1999/xlink" x="0px" y="0px"
	 viewBox="0 0 1306 373" style="enable-background:new 0 0 1306 373;" xml:space="preserve">
<style type="text/css">
	.st0{fill:#FFFFFF;}
	.st1{fill:#00FF00;fill-opacity:0.1882;stroke:#00FF00;stroke-width:0.9999;stroke-miterlimit:3.9996;stroke-opacity:0.1882;}
	.st2{fill:#006400;}
	.st3{font-family:'ArialMT';}
	.st4{font-size:11.9989px;}
	.st5{fill:none;stroke:#000000;stroke-width:0.7499;stroke-miterlimit:3.9996;stroke-opacity:0.251;}
	.st6{fill:#FFFFFF;stroke:#000000;stroke-miterlimit:10;}
	.st7{font-size:9.9991px;}
	.st8{fill:#FF0000;fill-opacity:0.1255;stroke:#FF0000;stroke-width:0.9999;stroke-miterlimit:3.9996;stroke-opacity:0.1255;}
	.st9{enable-background:new    ;}
	.st10{fill:#7F0000;}
	.st11{fill:#00007F;fill-opacity:0.251;stroke:#00007F;stroke-width:0.9999;stroke-miterlimit:3.9996;stroke-opacity:0.251;}
	.st12{fill:#00007F;}
	
		.st13{fill:none;stroke:#000000;stroke-width:0.7499;stroke-miterlimit:3.9996;stroke-opacity:0.251;stroke-dasharray:4.9995,1.9998;}
	.st14{fill:none;stroke:#000000;stroke-width:1.9998;stroke-miterlimit:3.9996;stroke-opacity:0.251;}
	.st15{fill-opacity:0.1255;}
</style>
<polygon class="st0" points="0,373 0,0 1306,0 1306,373 "/>
<g id="node1">
	<g id="a_node1">
		<a>
			<polygon class="st1" points="337.5,146 288.5,146 288.5,181 337.5,181 			"/>
			<text transform="matrix(1 0 0 1 296.4731 165.6016)" class="st2 st3 st4" style="text-decoration: underline;">Probe</text>
		</a>
	</g>
</g>
<g id="node4">
	<g id="a_node4">
		<a>
			<polygon class="st1" points="106,217 4,217 4,252 106,252 			"/>
			<text transform="matrix(1 0 0 1 12.3105 237.5952)" class="st2 st3 st4">ProbeExtraction</text>
		</a>
	</g>
</g>
<g id="edge1">
	<path class="st5" d="M288.4,177.3c-3.1,1.4-6.3,2.6-9.4,3.7c-70.5,24.5-91.5,18.1-164,36c-2.9,0.7-5.9,1.5-9,2.3"/>
</g>
<g id="node10">
	<g id="a_node10">
		<a>
			<polygon class="st1" points="219.5,217 124.5,217 124.5,252 219.5,252 			"/>
			<text transform="matrix(1 0 0 1 132.9644 237.5952)" class="st2 st3 st4">ProbeInsertion</text>
		</a>
	</g>
</g>
<g id="edge2">
	<path class="st5" d="M288.4,176.5c-22.9,11.2-57.2,28-82.7,40.4"/>
</g>
<g id="node13">
	<g id="a_node13">
		<a>
			<polygon class="st1" points="358.5,217 237.5,217 237.5,252 358.5,252 			"/>
			<text transform="matrix(1 0 0 1 245.4775 236.5952)" class="st2 st3 st4" style="text-decoration: underline;">ProbeConfiguration</text>
		</a>
	</g>
</g>
<g id="edge3">
	<path class="st5" d="M309.3,181.2c-2.4,10.8-5.4,24.9-7.8,35.7"/>
</g>
<g id="node2">
	<g id="a_node2">
		<a>
			<polygon class="st6" points="972.9,225 876.9,225 876.9,244 972.9,244 			"/>
			<text transform="matrix(1 0 0 1 885.1797 236.9951)" class="st6 st3 st7">Dataset.DataFiles</text>
		</a>
	</g>
</g>
<g id="node3">
	<g id="a_node3">
		<a>
			<polygon class="st1" points="203,146 131,146 131,181 203,181 			"/>
			<text transform="matrix(1 0 0 1 138.9873 165.6016)" class="st2 st3 st4" style="text-decoration: underline;">Procedure</text>
		</a>
	</g>
</g>
<g id="edge4">
	<path class="st5" d="M140.2,181c-17.6,10.8-40.5,25-58.2,35.8"/>
</g>
<g id="edge5">
	<path class="st5" d="M168.2,181.2c0.8,10.8,1.8,24.9,2.6,35.7"/>
</g>
<g id="node5">
	<g id="a_node5">
		<a>
			<ellipse class="st8" cx="220" cy="356" rx="13" ry="13"/>
			<g class="st9">
				<text transform="matrix(1 0 0 1 146.9497 359.084)" class="st10 st3 st4">EphysRecordingNoiseStats</text>
			</g>
		</a>
	</g>
</g>
<g id="node6">
	<g id="a_node6">
		<a>
			<ellipse class="st11" cx="443" cy="234.5" rx="66" ry="17.5"/>
			<g class="st9">
				<text transform="matrix(1 0 0 1 398.9395 237.5952)" class="st12 st3 st4">EphysRecording</text>
			</g>
		</a>
	</g>
</g>
<g id="node16">
	<g id="a_node16">
		<a>
			<polygon class="st6" points="377,288 229,288 229,307 377,307 			"/>
			<text transform="matrix(1 0 0 1 236.9785 298.9893)" class="st6 st3 st7" style="text-decoration: underline;">EphysRecording.ProbeSetting</text>
		</a>
	</g>
</g>
<g id="edge6">
	<path class="st5" d="M410.1,249.8c-27.2,11.8-64.8,28.2-87.5,38.1"/>
</g>
<g id="node7">
	<g id="a_node7">
		<a>
			<ellipse class="st11" cx="573.9" cy="234.5" rx="46.7" ry="17.5"/>
			<g class="st9">
				<text transform="matrix(1 0 0 1 545.2715 237.5952)" class="st12 st3 st4">FixedBrain</text>
			</g>
		</a>
	</g>
</g>
<g id="node9">
	<g id="a_node9">
		<a>
			<polygon class="st6" points="515,288 413,288 413,307 515,307 			"/>
			<text transform="matrix(1 0 0 1 420.9619 298.9893)" class="st6 st3 st7" style="text-decoration: underline;">FixedBrain.Channel</text>
		</a>
	</g>
</g>
<g id="edge7">
	<path class="st5" d="M549,249.3c-21.4,11.9-51.6,28.6-69.7,38.6"/>
</g>
<g id="node8">
	<g id="a_node8">
		<a>
			<polygon class="st1" points="270.5,146 221.5,146 221.5,181 270.5,181 			"/>
			<text transform="matrix(1 0 0 1 229.9683 166.6016)" class="st2 st3 st4">Death</text>
		</a>
	</g>
</g>
<g id="node11">
	<g id="a_node11">
		<a>
			<ellipse class="st11" cx="697.9" cy="234.5" rx="59.2" ry="17.5"/>
			<g>
				<text transform="matrix(1 0 0 1 658.4395 236.5952)" class="st12 st3 st4" style="text-decoration: underline;">DatasetEvents</text>
			</g>
		</a>
	</g>
</g>
<g id="node32">
	<g id="a_node32">
		<a>
			<polygon class="st6" points="815.4,288 702.4,288 702.4,307 815.4,307 			"/>
			<text transform="matrix(1 0 0 1 710.4346 298.9893)" class="st6 st3 st7" style="text-decoration: underline;">DatasetEvents.Digital</text>
		</a>
	</g>
</g>
<g id="edge8">
	<path class="st5" d="M714,251.5c11.6,11.6,26.8,26.8,36.2,36.2"/>
</g>
<g id="node34">
	<g id="a_node34">
		<a>
			<polygon class="st6" points="684.4,288 533.5,288 533.5,307 684.4,307 			"/>
			<text transform="matrix(1 0 0 1 541.4502 298.9893)" class="st6 st3 st7" style="text-decoration: underline;">DatasetEvents.AnalogChannel</text>
		</a>
	</g>
</g>
<g id="edge9">
	<path class="st5" d="M675.5,250.9c-17.1,11.7-40,27.4-54,37"/>
</g>
<g id="node12">
	<g id="a_node12">
		<a>
			<polygon class="st1" points="418,75 376,75 376,110 418,110 			"/>
			<text transform="matrix(1 0 0 1 383.9648 94.6084)" class="st2 st3 st4" style="text-decoration: underline;">Note</text>
		</a>
	</g>
</g>
<g id="edge10">
	<path class="st13" d="M375.7,99c-34.6,9-105,27.9-163.7,47c-2.8,0.9-5.8,1.9-8.7,2.9"/>
</g>
<g id="edge11">
	<path class="st13" d="M375.9,102.5c-23.7,10.2-63.3,27.6-97,43.5c-2.7,1.3-5.4,2.6-8.2,3.9"/>
</g>
<g id="node20">
	<g id="a_node20">
		<a>
			<polygon class="st6" points="446.5,154 355.5,154 355.5,173 446.5,173 			"/>
			<text transform="matrix(1 0 0 1 363.7256 166.0015)" class="st6 st3 st7">Note.Attachment</text>
		</a>
	</g>
</g>
<g id="edge12">
	<path class="st5" d="M397.9,110.2c0.8,13.7,1.9,32.6,2.5,43.5"/>
</g>
<g id="node23">
	<g id="a_node23">
		<a>
			<polygon class="st1" points="726.9,146 668.9,146 668.9,181 726.9,181 			"/>
			<text transform="matrix(1 0 0 1 676.9385 165.6016)" class="st2 st3 st4" style="text-decoration: underline;">Dataset</text>
		</a>
	</g>
</g>
<g id="edge13">
	<path class="st13" d="M418.2,106.2c2.9,1.4,5.8,2.7,8.7,3.8c84.7,30.6,191.1,44.6,241.7,49.8"/>
</g>
<g id="node37">
	<g id="a_node37">
		<a>
			<polygon class="st6" points="533,154 465,154 465,173 533,173 			"/>
			<text transform="matrix(1 0 0 1 472.957 165.002)" class="st6 st3 st7" style="text-decoration: underline;">Note.Image</text>
		</a>
	</g>
</g>
<g id="edge14">
	<path class="st5" d="M418.1,107.8c20.5,13.9,51.1,34.5,68.1,46.1"/>
</g>
<g id="edge15">
	<path class="st13" d="M299.3,252.2c0.9,11.6,2.2,26.5,2.9,35.7"/>
</g>
<g id="node14">
	<g id="a_node14">
		<a>
			<polygon class="st1" points="112.5,146 7.5,146 7.5,181 112.5,181 			"/>
			<text transform="matrix(1 0 0 1 15.499 165.6016)" class="st2 st3 st4" style="text-decoration: underline;">WaterRestriction</text>
		</a>
	</g>
</g>
<g id="node15">
	<g id="a_node15">
		<a>
			<polygon class="st6" points="1072.4,288 965.4,288 965.4,307 1072.4,307 			"/>
			<text transform="matrix(1 0 0 1 973.4111 298.9893)" class="st6 st3 st7" style="text-decoration: underline;">DatasetVideo.Frame</text>
		</a>
	</g>
</g>
<g id="edge16">
	<path class="st14" d="M290.4,307.1c-16.4,11.2-44.8,30.5-60,40.9"/>
</g>
<g id="node28">
	<g id="a_node28">
		<a>
			<polygon class="st6" points="453.5,346.5 320.5,346.5 320.5,365.5 453.5,365.5 			"/>
			<text transform="matrix(1 0 0 1 327.4951 358.4839)" class="st6 st3 st7">EphysRecording.ProbeFile</text>
		</a>
	</g>
</g>
<g id="edge17">
	<path class="st5" d="M315.7,307.1c15.8,10.6,42.5,28.6,58.4,39.3"/>
</g>
<g id="node17">
	<g id="a_node17">
		<a>
			<polygon class="st6" points="937.9,288 833.9,288 833.9,307 937.9,307 			"/>
			<text transform="matrix(1 0 0 1 841.9229 298.9893)" class="st6 st3 st7" style="text-decoration: underline;">Widefield.Projection</text>
		</a>
	</g>
</g>
<g id="node18">
	<g id="a_node18">
		<a>
			<polygon class="st1" points="585.9,75 526,75 526,110 585.9,110 			"/>
			<text transform="matrix(1 0 0 1 533.9512 94.6084)" class="st2 st3 st4" style="text-decoration: underline;">Session</text>
		</a>
	</g>
</g>
<g id="edge18">
	<path class="st5" d="M586.1,108.1c24.4,11.9,58.6,28.5,82.8,40.2"/>
</g>
<g id="node19">
	<g id="a_node19">
		<a>
			<polygon class="st1" points="156,75 88,75 88,110 156,110 			"/>
			<text transform="matrix(1 0 0 1 95.9912 94.6084)" class="st2 st3 st4" style="text-decoration: underline;">Weighing</text>
		</a>
	</g>
</g>
<g id="edge19">
	<path class="st13" d="M132.9,110.2c7.1,10.8,16.3,24.9,23.3,35.7"/>
</g>
<g id="edge20">
	<path class="st13" d="M107,110.2c-9.7,10.8-22.4,24.9-32.1,35.7"/>
</g>
<g id="node21">
	<g id="a_node21">
		<a>
			<polygon class="st1" points="1219.9,75 1175.9,75 1175.9,110 1219.9,110 			"/>
			<text transform="matrix(1 0 0 1 1183.8916 94.6084)" class="st2 st3 st4" style="text-decoration: underline;">Atlas</text>
		</a>
	</g>
</g>
<g id="node26">
	<g id="a_node26">
		<a>
			<polygon class="st6" points="1234.4,154 1161.4,154 1161.4,173 1234.4,173 			"/>
			<text transform="matrix(1 0 0 1 1169.3926 165.002)" class="st6 st3 st7" style="text-decoration: underline;">Atlas.Region</text>
		</a>
	</g>
</g>
<g id="edge21">
	<path class="st5" d="M1197.9,110.2c0,13.7,0,32.6,0,43.5"/>
</g>
<g id="node22">
	<g id="a_node22">
		<a>
			<ellipse class="st11" cx="816.9" cy="234.5" rx="41.7" ry="17.5"/>
			<g class="st9">
				<text transform="matrix(1 0 0 1 792.251 237.5952)" class="st12 st3 st4">Widefield</text>
			</g>
		</a>
	</g>
</g>
<g id="edge22">
	<path class="st5" d="M834,250.6c13.2,11.7,31.1,27.5,42.1,37.2"/>
</g>
<g id="edge23">
	<path class="st5" d="M727.1,173.4c43.9,13.4,126.5,38.5,169.7,51.6"/>
</g>
<g id="edge24">
	<path class="st14" d="M668.7,172.4c-44.3,12-128.9,34.9-181,49"/>
</g>
<g id="edge25">
	<path class="st14" d="M668.9,180.7c-21.2,11.8-49.6,27.6-69.8,38.8"/>
</g>
<g id="edge26">
	<path class="st5" d="M697.9,181.2c0,10.8,0,24.9,0,35.7"/>
</g>
<g id="edge27">
	<path class="st14" d="M726.4,181c20.5,11.9,47.8,27.7,67,38.9"/>
</g>
<g id="node24">
	<g id="a_node24">
		<a>
			<ellipse class="st11" cx="1142.9" cy="234.5" rx="44.2" ry="17.5"/>
			<g class="st9">
				<text transform="matrix(1 0 0 1 1115.8857 237.5952)" class="st12 st3 st4">Miniscope</text>
			</g>
		</a>
	</g>
</g>
<g id="edge28">
	<path class="st14" d="M727.2,166.7c65.6,5.3,228.9,20.7,362.7,50.3c6.7,1.5,13.7,3.4,20.4,5.4"/>
</g>
<g id="node29">
	<g id="a_node29">
		<a>
			<ellipse class="st11" cx="1253.9" cy="234.5" rx="48.2" ry="17.5"/>
			<g class="st9">
				<text transform="matrix(1 0 0 1 1223.8672 237.5952)" class="st12 st3 st4">TwoPhoton</text>
			</g>
		</a>
	</g>
</g>
<g id="edge29">
	<path class="st14" d="M727.1,165.8c77.2,3.9,292.8,17.1,468.8,51.2c7.5,1.4,15.4,3.4,23,5.5"/>
</g>
<g id="node33">
	<g id="a_node33">
		<a>
			<polygon class="st1" points="1080.4,217 991.4,217 991.4,252 1080.4,252 			"/>
			<text transform="matrix(1 0 0 1 999.4082 236.5952)" class="st2 st3 st4" style="text-decoration: underline;">DatasetVideo</text>
		</a>
	</g>
</g>
<g id="edge30">
	<path class="st5" d="M727.2,168.8c51.8,7.8,162.7,25.7,254.7,48.2c3,0.7,6.2,1.6,9.3,2.4"/>
</g>
<g id="node25">
	<g id="a_node25">
		<a>
			<polygon class="st6" points="1185.4,288 1090.4,288 1090.4,307 1185.4,307 			"/>
			<text transform="matrix(1 0 0 1 1098.5244 299.9893)" class="st6 st3 st7">DatasetVideo.File</text>
		</a>
	</g>
</g>
<g id="edge31">
	<path class="st13" d="M1190.9,173.2c-8.8,11.1-24.3,30.4-35.3,44.2"/>
</g>
<g id="edge32">
	<path class="st13" d="M1205,173.2c9,11.1,24.7,30.4,35.9,44.2"/>
</g>
<g id="node27">
	<g id="a_node27">
		<a>
			<polygon class="st1" points="669.4,75 604.4,75 604.4,110 669.4,110 			"/>
			<text transform="matrix(1 0 0 1 612.4443 94.6084)" class="st2 st3 st4" style="text-decoration: underline;">Watering</text>
		</a>
	</g>
</g>
<g id="node31">
	<g id="a_node31">
		<a>
			<polygon class="st6" points="1300.4,288 1207.4,288 1207.4,307 1300.4,307 			"/>
			<text transform="matrix(1 0 0 1 1215.3887 298.9893)" class="st6 st3 st7" style="text-decoration: underline;">TwoPhoton.Plane</text>
		</a>
	</g>
</g>
<g id="edge33">
	<path class="st5" d="M1253.9,252.2c0,11.6,0,26.5,0,35.7"/>
</g>
<g id="node30">
	<g id="a_node30">
		<a>
			<polygon class="st15" points="508,75 436,75 436,110 508,110 			"/>
			<text transform="matrix(1 0 0 1 443.959 94.0083)" class="st3 st7" style="text-decoration: underline;">DatasetType</text>
		</a>
	</g>
</g>
<g id="edge34">
	<path class="st13" d="M508.2,107c2.9,1,5.9,2,8.7,3c53.2,17.4,116,35,152,44.7"/>
</g>
<g id="edge35">
	<path class="st5" d="M1031.3,252.2c-3.2,11.6-7.4,26.5-10,35.7"/>
</g>
<g id="edge36">
	<path class="st5" d="M1063.5,252c19.3,11.6,44.4,26.6,60,35.9"/>
</g>
<g id="node35">
	<g id="a_node35">
		<a>
			<polygon class="st1" points="350.5,4 293.5,4 293.5,39 350.5,39 			"/>
			<text transform="matrix(1 0 0 1 301.4727 23.6147)" class="st2 st3 st4" style="text-decoration: underline;">Subject</text>
		</a>
	</g>
</g>
<g id="edge37">
	<path class="st5" d="M314.4,39.1c-9.4,19-26.9,50.3-49.4,70.9c-17.9,16.4-41.9,29.4-61.7,38.4"/>
</g>
<g id="edge38">
	<path class="st14" d="M320,39.3c-2.8,18.4-9,48.2-22,70.7c-7.9,13.7-20.2,26.3-30.9,35.8"/>
</g>
<g id="edge39">
	<path class="st5" d="M293.1,24.9C235.4,30.2,108.9,45.1,79,75c-18.7,18.7-20.9,51.1-20.3,70.8"/>
</g>
<g id="edge40">
	<path class="st5" d="M350.8,29C389.1,37.8,458.9,55,517,75c2.9,1,5.9,2.1,8.9,3.3"/>
</g>
<g id="edge41">
	<path class="st5" d="M293.2,31.7C261.6,41.9,209.5,59,165,75c-2.9,1-5.8,2.1-8.8,3.2"/>
</g>
<g id="edge42">
	<path class="st5" d="M350.7,22.7c76.2,1,280.8,8,328.2,52.3c19.4,18.1,21.4,51.1,20.5,71"/>
</g>
<g id="edge43">
	<path class="st5" d="M350.7,26.3c50.2,6.9,156.9,23.4,244.3,48.8c3,0.9,6.1,1.9,9.2,2.9"/>
</g>
<g id="node36">
	<g id="a_node36">
		<a>
			<polygon class="st15" points="256,75 174,75 174,110 256,110 			"/>
			<text transform="matrix(1 0 0 1 181.9834 94.0083)" class="st3 st7" style="text-decoration: underline;">ProcedureType</text>
		</a>
	</g>
</g>
<g id="edge44">
	<path class="st5" d="M203.4,110.2c-7.5,10.8-17.3,24.9-24.9,35.7"/>
</g>
</svg>
